<svg width="337" height="171" viewBox="0 0 337 171" fill="none" xmlns="http://www.w3.org/2000/svg">
<g clip-path="url(#clip0_1036_706)">
<path d="M54.4119 145H43.1193V106.455H55.0895C58.7659 106.455 61.909 107.22 64.5188 108.751C67.1412 110.281 69.1488 112.477 70.5415 115.338C71.9343 118.199 72.6307 121.631 72.6307 125.633C72.6307 129.673 71.9155 133.143 70.4851 136.041C69.0672 138.927 66.9969 141.142 64.2741 142.685C61.5639 144.228 58.2765 145 54.4119 145ZM46.6389 141.838H54.2049C57.5174 141.838 60.2904 141.186 62.5238 139.881C64.7572 138.576 66.4323 136.712 67.549 134.291C68.6657 131.869 69.2241 128.983 69.2241 125.633C69.2115 122.308 68.6594 119.447 67.5678 117.051C66.4888 114.654 64.8827 112.816 62.7496 111.536C60.6291 110.256 58.0067 109.616 54.8825 109.616H46.6389V141.838ZM81.1613 145V106.455H103.521V109.616H84.6808V124.127H102.335V127.289H84.6808V141.838H103.897V145H81.1613ZM142.819 118.5H139.281C139.017 117.183 138.54 115.965 137.85 114.849C137.173 113.719 136.319 112.734 135.291 111.894C134.262 111.053 133.095 110.401 131.79 109.936C130.485 109.472 129.073 109.24 127.555 109.24C125.121 109.24 122.9 109.874 120.892 111.141C118.897 112.408 117.298 114.272 116.093 116.731C114.901 119.178 114.305 122.176 114.305 125.727C114.305 129.303 114.901 132.315 116.093 134.761C117.298 137.208 118.897 139.065 120.892 140.332C122.9 141.587 125.121 142.214 127.555 142.214C129.073 142.214 130.485 141.982 131.79 141.518C133.095 141.054 134.262 140.408 135.291 139.58C136.319 138.739 137.173 137.754 137.85 136.625C138.54 135.495 139.017 134.272 139.281 132.955H142.819C142.505 134.724 141.916 136.374 141.05 137.904C140.197 139.423 139.105 140.753 137.775 141.895C136.457 143.036 134.939 143.927 133.22 144.567C131.501 145.207 129.613 145.527 127.555 145.527C124.318 145.527 121.445 144.718 118.935 143.099C116.426 141.468 114.456 139.172 113.025 136.211C111.607 133.249 110.899 129.755 110.899 125.727C110.899 121.7 111.607 118.205 113.025 115.244C114.456 112.283 116.426 109.993 118.935 108.374C121.445 106.743 124.318 105.928 127.555 105.928C129.613 105.928 131.501 106.248 133.22 106.887C134.939 107.515 136.457 108.406 137.775 109.56C139.105 110.702 140.197 112.032 141.05 113.55C141.916 115.068 142.505 116.718 142.819 118.5ZM182.687 125.727C182.687 129.742 181.971 133.237 180.541 136.211C179.111 139.172 177.141 141.468 174.631 143.099C172.134 144.718 169.261 145.527 166.011 145.527C162.761 145.527 159.882 144.718 157.372 143.099C154.875 141.468 152.912 139.172 151.481 136.211C150.064 133.237 149.355 129.742 149.355 125.727C149.355 121.712 150.064 118.224 151.481 115.263C152.912 112.289 154.882 109.993 157.391 108.374C159.901 106.743 162.774 105.928 166.011 105.928C169.261 105.928 172.134 106.743 174.631 108.374C177.141 109.993 179.111 112.289 180.541 115.263C181.971 118.224 182.687 121.712 182.687 125.727ZM179.261 125.727C179.261 122.277 178.684 119.322 177.53 116.863C176.375 114.391 174.801 112.502 172.806 111.197C170.811 109.893 168.546 109.24 166.011 109.24C163.489 109.24 161.231 109.893 159.236 111.197C157.241 112.502 155.66 114.384 154.493 116.844C153.338 119.303 152.761 122.264 152.761 125.727C152.761 129.178 153.338 132.133 154.493 134.592C155.647 137.051 157.222 138.94 159.217 140.257C161.212 141.562 163.477 142.214 166.011 142.214C168.546 142.214 170.811 141.562 172.806 140.257C174.813 138.952 176.394 137.07 177.548 134.611C178.703 132.139 179.274 129.178 179.261 125.727ZM191.198 145V106.455H203.639C206.374 106.455 208.658 106.95 210.49 107.941C212.334 108.92 213.721 110.281 214.649 112.026C215.59 113.757 216.061 115.746 216.061 117.992C216.061 120.238 215.59 122.22 214.649 123.939C213.721 125.658 212.341 127.001 210.509 127.967C208.677 128.933 206.406 129.416 203.696 129.416H193.099V126.198H203.601C205.609 126.198 207.278 125.865 208.608 125.2C209.95 124.535 210.948 123.588 211.6 122.358C212.265 121.129 212.598 119.673 212.598 117.992C212.598 116.31 212.265 114.842 211.6 113.588C210.935 112.32 209.932 111.342 208.589 110.652C207.259 109.962 205.578 109.616 203.545 109.616H194.718V145H191.198ZM208.194 127.609L217.68 145H213.614L204.223 127.609H208.194ZM245.563 116.091C245.35 113.945 244.402 112.239 242.721 110.972C241.04 109.704 238.925 109.071 236.378 109.071C234.584 109.071 233.003 109.378 231.635 109.993C230.28 110.608 229.214 111.461 228.436 112.553C227.67 113.632 227.288 114.861 227.288 116.241C227.288 117.258 227.507 118.149 227.946 118.914C228.386 119.679 228.975 120.338 229.716 120.89C230.468 121.43 231.297 121.894 232.2 122.283C233.116 122.672 234.038 122.998 234.967 123.262L239.032 124.429C240.262 124.767 241.491 125.2 242.721 125.727C243.951 126.254 245.074 126.919 246.09 127.722C247.119 128.513 247.941 129.485 248.555 130.64C249.183 131.781 249.497 133.155 249.497 134.761C249.497 136.819 248.963 138.67 247.897 140.314C246.83 141.957 245.299 143.262 243.304 144.228C241.309 145.182 238.919 145.659 236.134 145.659C233.511 145.659 231.234 145.226 229.302 144.36C227.369 143.482 225.851 142.271 224.747 140.728C223.643 139.184 223.022 137.396 222.884 135.364H226.497C226.623 136.882 227.125 138.168 228.003 139.222C228.881 140.276 230.023 141.079 231.428 141.631C232.834 142.171 234.402 142.44 236.134 142.44C238.053 142.44 239.76 142.12 241.253 141.48C242.759 140.828 243.938 139.925 244.791 138.77C245.657 137.603 246.09 136.248 246.09 134.705C246.09 133.4 245.751 132.308 245.074 131.43C244.396 130.539 243.449 129.793 242.232 129.19C241.027 128.588 239.628 128.055 238.035 127.591L233.423 126.235C230.399 125.332 228.053 124.084 226.384 122.49C224.716 120.897 223.881 118.864 223.881 116.392C223.881 114.322 224.433 112.502 225.537 110.934C226.654 109.353 228.16 108.123 230.054 107.245C231.962 106.354 234.101 105.909 236.472 105.909C238.869 105.909 240.989 106.348 242.834 107.226C244.678 108.105 246.14 109.315 247.219 110.859C248.311 112.389 248.894 114.134 248.97 116.091H245.563ZM263.631 106.455V145H256.649V106.455H263.631ZM302.868 106.455V145H296.657L278.495 118.745H278.175V145H271.192V106.455H277.441L295.585 132.729H295.923V106.455H302.868Z" fill="black"/>
<path d="M99.3566 167.096H95.1836V155.758H99.5414C100.853 155.758 101.976 155.985 102.909 156.439C103.842 156.89 104.557 157.538 105.055 158.383C105.552 159.224 105.801 160.232 105.801 161.405C105.801 162.586 105.55 163.603 105.048 164.456C104.546 165.305 103.815 165.958 102.856 166.415C101.896 166.869 100.73 167.096 99.3566 167.096ZM96.821 165.878H99.2508C100.369 165.878 101.296 165.698 102.031 165.336C102.766 164.974 103.314 164.459 103.675 163.791C104.036 163.123 104.216 162.328 104.216 161.405C104.216 160.49 104.038 159.702 103.681 159.041C103.325 158.377 102.792 157.868 102.083 157.514C101.375 157.156 100.493 156.976 99.4356 156.976H96.821V165.878ZM108.547 167.096V155.758H116.709V156.976H110.185V160.807H116.286V162.025H110.185V165.878H116.814V167.096H108.547ZM127.055 158.593C126.975 158.032 126.654 157.597 126.091 157.287C125.528 156.976 124.836 156.821 124.017 156.821C123.419 156.821 122.895 156.903 122.446 157.065C122.001 157.227 121.654 157.451 121.403 157.735C121.156 158.019 121.033 158.342 121.033 158.704C121.033 159.006 121.119 159.267 121.291 159.484C121.467 159.698 121.691 159.877 121.964 160.021C122.237 160.161 122.523 160.278 122.822 160.37C123.122 160.459 123.397 160.531 123.648 160.586L125.021 160.896C125.374 160.974 125.765 161.081 126.196 161.217C126.632 161.354 127.048 161.54 127.444 161.776C127.845 162.009 128.175 162.307 128.434 162.673C128.694 163.038 128.824 163.487 128.824 164.018C128.824 164.631 128.633 165.185 128.25 165.679C127.871 166.174 127.317 166.567 126.586 166.858C125.86 167.15 124.977 167.296 123.938 167.296C122.97 167.296 122.131 167.165 121.423 166.902C120.718 166.64 120.164 166.275 119.759 165.806C119.358 165.338 119.132 164.793 119.079 164.173H120.769C120.813 164.602 120.984 164.956 121.284 165.236C121.588 165.513 121.97 165.72 122.433 165.856C122.9 165.989 123.402 166.056 123.938 166.056C124.564 166.056 125.124 165.97 125.622 165.801C126.12 165.628 126.514 165.387 126.804 165.081C127.095 164.771 127.24 164.41 127.24 163.996C127.24 163.62 127.114 163.313 126.863 163.077C126.612 162.841 126.282 162.649 125.873 162.501C125.464 162.354 125.021 162.225 124.546 162.114L122.882 161.716C121.825 161.461 120.989 161.097 120.373 160.625C119.757 160.152 119.449 159.534 119.449 158.77C119.449 158.135 119.653 157.582 120.062 157.109C120.476 156.633 121.031 156.264 121.726 156.002C122.427 155.737 123.207 155.604 124.07 155.604C124.942 155.604 125.716 155.735 126.394 155.997C127.073 156.255 127.609 156.609 128.006 157.06C128.406 157.51 128.617 158.021 128.64 158.593H127.055ZM133.154 155.758V167.096H131.516V155.758H133.154ZM145.681 159.302C145.535 158.929 145.344 158.595 145.107 158.3C144.873 158.001 144.594 157.746 144.268 157.536C143.946 157.325 143.581 157.165 143.172 157.054C142.763 156.943 142.314 156.888 141.825 156.888C141.024 156.888 140.295 157.062 139.64 157.408C138.984 157.755 138.462 158.266 138.074 158.942C137.687 159.617 137.493 160.445 137.493 161.428C137.493 162.409 137.689 163.238 138.081 163.913C138.473 164.588 139.003 165.1 139.672 165.447C140.342 165.794 141.094 165.967 141.931 165.967C142.705 165.967 143.387 165.829 143.977 165.552C144.572 165.271 145.034 164.876 145.364 164.367C145.699 163.854 145.865 163.251 145.865 162.557L146.368 162.646H142.3V161.428H147.451V162.646C147.451 163.579 147.213 164.391 146.737 165.081C146.266 165.771 145.615 166.307 144.783 166.687C143.956 167.063 143.004 167.251 141.931 167.251C140.733 167.251 139.682 167.015 138.775 166.543C137.872 166.07 137.168 165.399 136.662 164.527C136.16 163.656 135.909 162.623 135.909 161.428C135.909 160.531 136.052 159.724 136.338 159.008C136.629 158.288 137.038 157.676 137.566 157.17C138.094 156.665 138.719 156.277 139.442 156.008C140.163 155.738 140.957 155.604 141.825 155.604C142.538 155.604 143.203 155.694 143.819 155.875C144.44 156.052 144.992 156.305 145.476 156.633C145.965 156.958 146.372 157.348 146.698 157.801C147.023 158.252 147.248 158.752 147.371 159.302H145.681ZM160.978 155.758V167.096H159.393L152.024 158.194H151.893V167.096H150.255V155.758H151.84L159.235 164.682H159.366V155.758H160.978ZM169.483 167.096V155.758H177.592V156.976H171.121V160.807H176.984V162.025H171.121V167.096H169.483ZM191.806 161.428C191.806 162.623 191.548 163.656 191.033 164.527C190.518 165.399 189.811 166.07 188.914 166.543C188.015 167.015 186.99 167.251 185.837 167.251C184.683 167.251 183.658 167.015 182.76 166.543C181.862 166.07 181.155 165.399 180.64 164.527C180.126 163.656 179.868 162.623 179.868 161.428C179.868 160.232 180.126 159.198 180.64 158.327C181.155 157.456 181.862 156.784 182.76 156.312C183.658 155.84 184.683 155.604 185.837 155.604C186.99 155.604 188.015 155.84 188.914 156.312C189.811 156.784 190.518 157.456 191.033 158.327C191.548 159.198 191.806 160.232 191.806 161.428ZM190.221 161.428C190.221 160.445 190.025 159.617 189.633 158.942C189.246 158.266 188.72 157.755 188.055 157.408C187.395 157.062 186.655 156.888 185.837 156.888C185.018 156.888 184.276 157.062 183.612 157.408C182.951 157.755 182.425 158.266 182.034 158.942C181.646 159.617 181.453 160.445 181.453 161.428C181.453 162.409 181.646 163.238 182.034 163.913C182.425 164.588 182.951 165.1 183.612 165.447C184.276 165.794 185.018 165.967 185.837 165.967C186.655 165.967 187.395 165.794 188.055 165.447C188.72 165.1 189.246 164.588 189.633 163.913C190.025 163.238 190.221 162.409 190.221 161.428ZM194.559 167.096V155.758H199.128C200.184 155.758 201.052 155.91 201.729 156.212C202.407 156.512 202.909 156.923 203.235 157.447C203.56 157.971 203.723 158.567 203.723 159.235C203.723 159.903 203.56 160.496 203.235 161.012C202.909 161.529 202.409 161.935 201.736 162.23C201.063 162.522 200.202 162.667 199.154 162.667H195.457V161.428H199.102C199.823 161.428 200.404 161.339 200.845 161.162C201.289 160.985 201.611 160.733 201.809 160.409C202.011 160.08 202.112 159.689 202.112 159.235C202.112 158.781 202.011 158.384 201.809 158.045C201.606 157.705 201.282 157.444 200.838 157.259C200.393 157.07 199.806 156.976 199.075 156.976H196.196V167.096H194.559ZM200.924 162.003L204.251 167.096H202.35L199.075 162.003H200.924ZM211.681 167.096V155.758H213.318V165.878H219.605V167.096H211.681ZM223.777 155.758V167.096H222.14V155.758H223.777ZM227.06 167.096V155.758H235.168V156.976H228.698V160.807H234.561V162.025H228.698V167.096H227.06ZM237.973 167.096V155.758H246.134V156.976H239.61V160.807H245.711V162.025H239.61V165.878H246.239V167.096H237.973Z" fill="black"/>
<path d="M76.5 76.5L81.5 78.5L80.7333 95.9692H76.666L76.5 76.5Z" fill="black"/>
<path d="M76.375 76.411L147.842 62.3567L225.12 47.498L220.762 51.8826L184.157 58.7029L149.585 65.2797L81.3138 78.8469L76.375 76.411Z" fill="black"/>
<path d="M110.949 50.1797L115.016 51.8848V94.9992H110.949V50.1797Z" fill="black"/>
<path d="M159.754 13.8864L159.754 8.77148L246.038 51.3985L242.45 53.9152L159.754 13.8864Z" fill="black"/>
<path d="M258.53 35.077L262.597 32.8848L262.016 90.8579H257.949L258.53 35.077Z" fill="black"/>
<path d="M193.529 0L197.523 5.60244L196.797 56.0244H191.713L193.529 0Z" fill="black"/>
<path d="M197.231 5.60234L193.455 0L262.598 32.8839L258.257 35.3852L197.231 5.60234Z" fill="black"/>
<path d="M242.334 53.8343L244.295 52.6164L246.038 51.3984L246.939 95.7308L242.334 95.4872V53.8343Z" fill="black"/>
<path d="M158.012 13.6426L162.079 13.6427V60.4108H158.012V13.6426Z" fill="black"/>
<path d="M159.756 14.3733V8.52734L110.949 50.1802L115.016 51.8853L159.756 14.3733Z" fill="black"/>
<path d="M115.016 21.9199H110.949V32.1505H115.016V21.9199Z" fill="black"/>
<path d="M158.011 63.5765L162.078 62.8457V94.9989H157.721L158.011 63.5765Z" fill="black"/>
<path d="M192.874 57.0003L196.39 56.2695L196.36 94.5123H192.293L192.874 57.0003Z" fill="black"/>
<path d="M128.822 22.5793L128.82 19L111.013 19.0057L111.015 22.5851L128.822 22.5793Z" fill="black"/>
<path d="M0.261719 103.282L76.6663 95.4872L168.76 93.2949L243.714 95.4872L284.386 97.4359L336.971 103.769L313.438 101.82L154.526 98.6538L0.261719 103.282Z" fill="black"/>
<path d="M220.793 51.7519L225.151 47.2539L225.441 95.4836H221.374L220.793 51.7519Z" fill="black"/>
<path d="M162.107 15.1035L192.5 29.5L192.321 54.077L162.107 59.9231V15.1035Z" fill="#9C6E5E"/>
<path d="M162.107 62.846L192.902 57L192.321 94.2684L162.107 93.5377V62.846Z" fill="#BB9276"/>
<path d="M196.39 56.2693L220.793 51.8848L221.084 73.442L221.374 94.9992L195.809 94.2685L196.39 56.2693Z" fill="#BB9276"/>
<path d="M224.859 45.3984L242.581 53.6803V73.0453V95.5L224.859 95.1016V70.0005V45.3984Z" fill="#968478"/>
<path d="M115 72L158 63.5V71V94L115 94.5V72Z" fill="#97867C"/>
<path d="M196.971 31.9102L215.564 40.9228L228 47L196.5 53L196.971 31.9102Z" fill="#968478"/>
</g>
<defs>
<clipPath id="clip0_1036_706">
<rect width="337" height="170.996" fill="white"/>
</clipPath>
</defs>
</svg>
