<svg width="580" height="351" viewBox="0 0 580 351" fill="none" xmlns="http://www.w3.org/2000/svg">
<path d="M60.7273 289H40.2727V219.182H61.9545C68.6136 219.182 74.3068 220.568 79.0341 223.341C83.7841 226.114 87.4205 230.091 89.9432 235.273C92.4659 240.455 93.7273 246.67 93.7273 253.92C93.7273 261.239 92.4318 267.523 89.8409 272.773C87.2727 278 83.5227 282.011 78.5909 284.807C73.6818 287.602 67.7273 289 60.7273 289ZM46.6477 283.273H60.3523C66.3523 283.273 71.375 282.091 75.4205 279.727C79.4659 277.364 82.5 273.989 84.5227 269.602C86.5455 265.216 87.5568 259.989 87.5568 253.92C87.5341 247.898 86.5341 242.716 84.5568 238.375C82.6023 234.034 79.6932 230.705 75.8295 228.386C71.9886 226.068 67.2386 224.909 61.5795 224.909H46.6477V283.273ZM109.179 289V219.182H149.679V224.909H115.554V251.193H147.531V256.92H115.554V283.273H150.361V289H109.179ZM220.861 241H214.452C213.974 238.614 213.111 236.409 211.861 234.386C210.634 232.341 209.088 230.557 207.224 229.034C205.361 227.511 203.247 226.33 200.884 225.489C198.52 224.648 195.963 224.227 193.213 224.227C188.804 224.227 184.781 225.375 181.145 227.67C177.531 229.966 174.634 233.341 172.452 237.795C170.293 242.227 169.213 247.659 169.213 254.091C169.213 260.568 170.293 266.023 172.452 270.455C174.634 274.886 177.531 278.25 181.145 280.545C184.781 282.818 188.804 283.955 193.213 283.955C195.963 283.955 198.52 283.534 200.884 282.693C203.247 281.852 205.361 280.682 207.224 279.182C209.088 277.659 210.634 275.875 211.861 273.83C213.111 271.784 213.974 269.568 214.452 267.182H220.861C220.293 270.386 219.224 273.375 217.656 276.148C216.111 278.898 214.134 281.307 211.724 283.375C209.338 285.443 206.588 287.057 203.474 288.216C200.361 289.375 196.94 289.955 193.213 289.955C187.349 289.955 182.145 288.489 177.599 285.557C173.054 282.602 169.486 278.443 166.895 273.08C164.327 267.716 163.043 261.386 163.043 254.091C163.043 246.795 164.327 240.466 166.895 235.102C169.486 229.739 173.054 225.591 177.599 222.659C182.145 219.705 187.349 218.227 193.213 218.227C196.94 218.227 200.361 218.807 203.474 219.966C206.588 221.102 209.338 222.716 211.724 224.807C214.134 226.875 216.111 229.284 217.656 232.034C219.224 234.784 220.293 237.773 220.861 241ZM293.074 254.091C293.074 261.364 291.778 267.693 289.188 273.08C286.597 278.443 283.028 282.602 278.483 285.557C273.96 288.489 268.756 289.955 262.869 289.955C256.983 289.955 251.767 288.489 247.222 285.557C242.699 282.602 239.142 278.443 236.551 273.08C233.983 267.693 232.699 261.364 232.699 254.091C232.699 246.818 233.983 240.5 236.551 235.136C239.142 229.75 242.71 225.591 247.256 222.659C251.801 219.705 257.006 218.227 262.869 218.227C268.756 218.227 273.96 219.705 278.483 222.659C283.028 225.591 286.597 229.75 289.188 235.136C291.778 240.5 293.074 246.818 293.074 254.091ZM286.869 254.091C286.869 247.841 285.824 242.489 283.733 238.034C281.642 233.557 278.79 230.136 275.176 227.773C271.563 225.409 267.46 224.227 262.869 224.227C258.301 224.227 254.21 225.409 250.597 227.773C246.983 230.136 244.119 233.545 242.006 238C239.915 242.455 238.869 247.818 238.869 254.091C238.869 260.341 239.915 265.693 242.006 270.148C244.097 274.602 246.949 278.023 250.562 280.409C254.176 282.773 258.278 283.955 262.869 283.955C267.46 283.955 271.563 282.773 275.176 280.409C278.813 278.045 281.676 274.636 283.767 270.182C285.858 265.705 286.892 260.341 286.869 254.091ZM308.491 289V219.182H331.026C335.98 219.182 340.116 220.08 343.435 221.875C346.776 223.648 349.287 226.114 350.969 229.273C352.673 232.409 353.526 236.011 353.526 240.08C353.526 244.148 352.673 247.739 350.969 250.852C349.287 253.966 346.787 256.398 343.469 258.148C340.151 259.898 336.037 260.773 331.128 260.773H311.935V254.943H330.957C334.594 254.943 337.616 254.341 340.026 253.136C342.457 251.932 344.264 250.216 345.446 247.989C346.651 245.761 347.253 243.125 347.253 240.08C347.253 237.034 346.651 234.375 345.446 232.102C344.241 229.807 342.423 228.034 339.991 226.784C337.582 225.534 334.537 224.909 330.855 224.909H314.866V289H308.491ZM339.276 257.5L356.457 289H349.094L332.082 257.5H339.276ZM404.611 238.375C404.293 235.398 402.952 233.08 400.588 231.42C398.247 229.761 395.202 228.932 391.452 228.932C388.815 228.932 386.554 229.33 384.668 230.125C382.781 230.92 381.338 232 380.338 233.364C379.338 234.727 378.827 236.284 378.804 238.034C378.804 239.489 379.134 240.75 379.793 241.818C380.474 242.886 381.395 243.795 382.554 244.545C383.713 245.273 384.997 245.886 386.406 246.386C387.815 246.886 389.236 247.307 390.668 247.648L397.213 249.284C399.849 249.898 402.384 250.727 404.815 251.773C407.27 252.818 409.463 254.136 411.395 255.727C413.349 257.318 414.895 259.239 416.031 261.489C417.168 263.739 417.736 266.375 417.736 269.398C417.736 273.489 416.69 277.091 414.599 280.205C412.509 283.295 409.486 285.716 405.531 287.466C401.599 289.193 396.838 290.057 391.247 290.057C385.815 290.057 381.099 289.216 377.099 287.534C373.122 285.852 370.009 283.398 367.759 280.17C365.531 276.943 364.327 273.011 364.145 268.375H376.588C376.77 270.807 377.52 272.83 378.838 274.443C380.156 276.057 381.872 277.261 383.986 278.057C386.122 278.852 388.509 279.25 391.145 279.25C393.895 279.25 396.304 278.841 398.372 278.023C400.463 277.182 402.099 276.023 403.281 274.545C404.463 273.045 405.065 271.295 405.088 269.295C405.065 267.477 404.531 265.977 403.486 264.795C402.44 263.591 400.974 262.591 399.088 261.795C397.224 260.977 395.043 260.25 392.543 259.614L384.599 257.568C378.849 256.091 374.304 253.852 370.963 250.852C367.645 247.83 365.986 243.818 365.986 238.818C365.986 234.705 367.099 231.102 369.327 228.011C371.577 224.92 374.634 222.523 378.497 220.818C382.361 219.091 386.736 218.227 391.622 218.227C396.577 218.227 400.918 219.091 404.645 220.818C408.395 222.523 411.338 224.898 413.474 227.943C415.611 230.966 416.713 234.443 416.781 238.375H404.611ZM441.659 219.182V289H429.011V219.182H441.659ZM512.73 219.182V289H501.48L468.582 241.443H468.003V289H455.355V219.182H466.673L499.537 266.773H500.151V219.182H512.73Z" fill="white"/>
<path d="M171 343H163.818V319.727H171.318C173.576 319.727 175.508 320.193 177.114 321.125C178.72 322.049 179.951 323.379 180.807 325.114C181.663 326.841 182.091 328.909 182.091 331.318C182.091 333.742 181.659 335.83 180.795 337.58C179.932 339.322 178.674 340.663 177.023 341.602C175.371 342.534 173.364 343 171 343ZM166.636 340.5H170.818C172.742 340.5 174.337 340.129 175.602 339.386C176.867 338.644 177.811 337.587 178.432 336.216C179.053 334.845 179.364 333.212 179.364 331.318C179.364 329.439 179.057 327.822 178.443 326.466C177.83 325.102 176.913 324.057 175.693 323.33C174.473 322.595 172.955 322.227 171.136 322.227H166.636V340.5ZM186.818 343V319.727H200.864V322.227H189.636V330.091H200.136V332.591H189.636V340.5H201.045V343H186.818ZM218.67 325.545C218.534 324.394 217.981 323.5 217.011 322.864C216.042 322.227 214.852 321.909 213.443 321.909C212.413 321.909 211.511 322.076 210.739 322.409C209.973 322.742 209.375 323.201 208.943 323.784C208.519 324.367 208.307 325.03 208.307 325.773C208.307 326.394 208.455 326.928 208.75 327.375C209.053 327.814 209.439 328.182 209.909 328.477C210.379 328.765 210.871 329.004 211.386 329.193C211.902 329.375 212.375 329.523 212.807 329.636L215.17 330.273C215.777 330.432 216.451 330.652 217.193 330.932C217.943 331.212 218.659 331.595 219.341 332.08C220.03 332.557 220.598 333.17 221.045 333.92C221.492 334.67 221.716 335.591 221.716 336.682C221.716 337.939 221.386 339.076 220.727 340.091C220.076 341.106 219.121 341.913 217.864 342.511C216.614 343.11 215.095 343.409 213.307 343.409C211.64 343.409 210.197 343.14 208.977 342.602C207.765 342.064 206.811 341.314 206.114 340.352C205.424 339.39 205.034 338.273 204.943 337H207.852C207.928 337.879 208.223 338.606 208.739 339.182C209.261 339.75 209.92 340.174 210.716 340.455C211.519 340.727 212.383 340.864 213.307 340.864C214.383 340.864 215.348 340.689 216.205 340.341C217.061 339.985 217.739 339.492 218.239 338.864C218.739 338.227 218.989 337.485 218.989 336.636C218.989 335.864 218.773 335.235 218.341 334.75C217.909 334.265 217.341 333.871 216.636 333.568C215.932 333.265 215.17 333 214.352 332.773L211.489 331.955C209.67 331.432 208.231 330.686 207.17 329.716C206.11 328.746 205.58 327.477 205.58 325.909C205.58 324.606 205.932 323.47 206.636 322.5C207.348 321.523 208.303 320.765 209.5 320.227C210.705 319.682 212.049 319.409 213.534 319.409C215.034 319.409 216.367 319.678 217.534 320.216C218.701 320.746 219.625 321.473 220.307 322.398C220.996 323.322 221.36 324.371 221.398 325.545H218.67ZM229.168 319.727V343H226.349V319.727H229.168ZM250.727 327C250.477 326.235 250.148 325.549 249.739 324.943C249.337 324.33 248.856 323.807 248.295 323.375C247.742 322.943 247.114 322.614 246.409 322.386C245.705 322.159 244.932 322.045 244.091 322.045C242.712 322.045 241.458 322.402 240.33 323.114C239.201 323.826 238.303 324.875 237.636 326.261C236.97 327.648 236.636 329.348 236.636 331.364C236.636 333.379 236.973 335.08 237.648 336.466C238.322 337.852 239.235 338.902 240.386 339.614C241.538 340.326 242.833 340.682 244.273 340.682C245.606 340.682 246.78 340.398 247.795 339.83C248.818 339.254 249.614 338.443 250.182 337.398C250.758 336.345 251.045 335.106 251.045 333.682L251.909 333.864H244.909V331.364H253.773V333.864C253.773 335.78 253.364 337.447 252.545 338.864C251.735 340.28 250.614 341.379 249.182 342.159C247.758 342.932 246.121 343.318 244.273 343.318C242.212 343.318 240.402 342.833 238.841 341.864C237.288 340.894 236.076 339.515 235.205 337.727C234.341 335.939 233.909 333.818 233.909 331.364C233.909 329.523 234.155 327.867 234.648 326.398C235.148 324.92 235.852 323.663 236.761 322.625C237.67 321.587 238.746 320.792 239.989 320.239C241.231 319.686 242.598 319.409 244.091 319.409C245.318 319.409 246.462 319.595 247.523 319.966C248.591 320.33 249.542 320.848 250.375 321.523C251.216 322.189 251.917 322.989 252.477 323.92C253.038 324.845 253.424 325.871 253.636 327H250.727ZM277.054 319.727V343H274.327L261.645 324.727H261.418V343H258.599V319.727H261.327L274.054 338.045H274.281V319.727H277.054ZM291.693 343V319.727H305.648V322.227H294.511V330.091H304.602V332.591H294.511V343H291.693ZM330.111 331.364C330.111 333.818 329.668 335.939 328.781 337.727C327.895 339.515 326.679 340.894 325.134 341.864C323.588 342.833 321.823 343.318 319.838 343.318C317.853 343.318 316.088 342.833 314.543 341.864C312.997 340.894 311.781 339.515 310.895 337.727C310.009 335.939 309.565 333.818 309.565 331.364C309.565 328.909 310.009 326.788 310.895 325C311.781 323.212 312.997 321.833 314.543 320.864C316.088 319.894 317.853 319.409 319.838 319.409C321.823 319.409 323.588 319.894 325.134 320.864C326.679 321.833 327.895 323.212 328.781 325C329.668 326.788 330.111 328.909 330.111 331.364ZM327.384 331.364C327.384 329.348 327.046 327.648 326.372 326.261C325.705 324.875 324.8 323.826 323.656 323.114C322.52 322.402 321.247 322.045 319.838 322.045C318.429 322.045 317.152 322.402 316.009 323.114C314.872 323.826 313.967 324.875 313.293 326.261C312.626 327.648 312.293 329.348 312.293 331.364C312.293 333.379 312.626 335.08 313.293 336.466C313.967 337.852 314.872 338.902 316.009 339.614C317.152 340.326 318.429 340.682 319.838 340.682C321.247 340.682 322.52 340.326 323.656 339.614C324.8 338.902 325.705 337.852 326.372 336.466C327.046 335.08 327.384 333.379 327.384 331.364ZM334.849 343V319.727H342.713C344.531 319.727 346.024 320.038 347.19 320.659C348.357 321.273 349.221 322.117 349.781 323.193C350.342 324.269 350.622 325.492 350.622 326.864C350.622 328.235 350.342 329.451 349.781 330.511C349.221 331.572 348.361 332.405 347.202 333.011C346.043 333.61 344.562 333.909 342.759 333.909H336.395V331.364H342.668C343.91 331.364 344.91 331.182 345.668 330.818C346.433 330.455 346.986 329.939 347.327 329.273C347.675 328.598 347.849 327.795 347.849 326.864C347.849 325.932 347.675 325.117 347.327 324.42C346.978 323.723 346.421 323.186 345.656 322.807C344.891 322.42 343.88 322.227 342.622 322.227H337.668V343H334.849ZM345.804 332.545L351.531 343H348.259L342.622 332.545H345.804ZM364.318 343V319.727H367.136V340.5H377.955V343H364.318ZM385.136 319.727V343H382.318V319.727H385.136ZM390.787 343V319.727H404.741V322.227H393.605V330.091H403.696V332.591H393.605V343H390.787ZM409.568 343V319.727H423.614V322.227H412.386V330.091H422.886V332.591H412.386V340.5H423.795V343H409.568Z" fill="white"/>
<path d="M131.949 157L138.949 161V197H131.949V157Z" fill="white"/>
<path d="M131.449 156.849L254.449 128L387.449 97.5L379.949 106.5L316.949 120.5L257.449 134L139.949 161.849L131.449 156.849Z" fill="white"/>
<path d="M190.949 103L197.949 106.5V195H190.949V103Z" fill="white"/>
<path d="M274.948 28.4999L274.949 18.0006L423.448 105.5L417.273 110.666L274.948 28.4999Z" fill="white"/>
<path d="M444.949 72L451.949 67.5L450.949 186.5H443.949L444.949 72Z" fill="white"/>
<path d="M333.074 0L339.949 11.5L338.699 115H329.949L333.074 0Z" fill="white"/>
<path d="M339.449 11.5L332.95 0.000209442L451.949 67.5002L444.479 72.6345L339.449 11.5Z" fill="white"/>
<path d="M417.074 110.5L420.449 108L423.449 105.5L425 196.5L417.074 196V110.5Z" fill="white"/>
<path d="M271.949 28L278.949 28.0002V124H271.949V28Z" fill="white"/>
<path d="M274.949 29.5L274.949 17.5002L190.95 103L197.95 106.5L274.949 29.5Z" fill="white"/>
<rect x="190.949" y="45" width="7" height="21" fill="white"/>
<path d="M271.949 130.5L278.949 129V195H271.449L271.949 130.5Z" fill="white"/>
<path d="M331.949 117L338 115.5L337.949 194H330.949L331.949 117Z" fill="white"/>
<rect x="221.709" y="39.001" width="7.34722" height="30.6477" transform="rotate(89.978 221.709 39.001)" fill="white"/>
<path d="M0.449497 212L131.947 196L290.447 191.5L419.447 196L489.447 200L579.949 213L539.447 209L265.949 202.5L0.449497 212Z" fill="white"/>
<path d="M380 106.233L387.5 97L388 196H381L380 106.233Z" fill="white"/>
<path d="M279 31L331 60.5V111L279 123V31Z" fill="#9C6E5E"/>
<path d="M279 129L332 117L331 193.5L279 192V129Z" fill="#BB9276"/>
<path d="M338 115.5L380 106.5L380.5 150.75L381 195L337 193.5L338 115.5Z" fill="#BB9276"/>
<path d="M387 94L417.5 111V150.75V195H387V144.5V94Z" fill="#968478"/>
<path d="M198.5 148.5L271 131V146.25V192L198.5 193.5V148.5Z" fill="#97867C"/>
<path d="M339 65.5L371 84L391 96.2295L339 109V65.5Z" fill="#968478"/>
</svg>
